<svg width="36" height="661" viewBox="0 0 36 661" fill="none" xmlns="http://www.w3.org/2000/svg">
<path d="M13.88 649.896V634.92H22.04V649.896H13.88ZM26.456 649.128V632.328H35V660.264H1.4L1.4 632.952H9.944L9.944 649.128H26.456ZM35 627.967H1.4L1.4 618.655L21.848 601.567L21.848 605.887H1.4V594.847H35V604.159L14.552 621.247V616.927H35V627.967ZM35.768 571.965C35.768 574.685 35.352 577.197 34.52 579.501C33.656 581.773 32.44 583.757 30.872 585.453C29.304 587.117 27.448 588.413 25.304 589.341C23.16 590.269 20.792 590.733 18.2 590.733C15.608 590.733 13.24 590.269 11.096 589.341C8.952 588.413 7.096 587.101 5.528 585.405C3.96 583.709 2.76 581.709 1.928 579.405C1.064 577.069 0.631999 574.509 0.631999 571.725C0.631999 568.397 1.192 565.437 2.312 562.845C3.432 560.221 5.032 558.061 7.112 556.365L13.496 563.613C12.28 564.669 11.368 565.821 10.76 567.069C10.12 568.285 9.8 569.645 9.8 571.149C9.8 572.397 9.992 573.533 10.376 574.557C10.76 575.549 11.32 576.397 12.056 577.101C12.792 577.805 13.672 578.349 14.696 578.733C15.72 579.117 16.888 579.309 18.2 579.309C19.448 579.309 20.6 579.117 21.656 578.733C22.68 578.349 23.56 577.805 24.296 577.101C25.032 576.397 25.608 575.565 26.024 574.605C26.408 573.613 26.6 572.509 26.6 571.293C26.6 570.013 26.392 568.765 25.976 567.549C25.528 566.333 24.776 565.037 23.72 563.661L31.496 557.325C32.872 559.373 33.928 561.709 34.664 564.333C35.4 566.957 35.768 569.501 35.768 571.965ZM30.056 567.165H17.288V557.325H31.496L30.056 567.165ZM35 552.498H1.4V541.17H35V552.498ZM35 535.717H1.4L1.4 526.405L21.848 509.317V513.637H1.4L1.4 502.597H35V511.909L14.552 528.997V524.677H35V535.717ZM13.88 486.771V471.795H22.04V486.771H13.88ZM26.456 486.003V469.203H35L35 497.139H1.4L1.4 469.827H9.944V486.003H26.456ZM13.88 454.474V439.498H22.04V454.474H13.88ZM26.456 453.706V436.906H35V464.842H1.4L1.4 437.53H9.944V453.706H26.456ZM35 432.545H1.4L1.4 416.369C1.4 413.233 1.912 410.529 2.936 408.257C3.96 405.953 5.432 404.177 7.352 402.929C9.24 401.681 11.48 401.057 14.072 401.057C16.664 401.057 18.904 401.681 20.792 402.929C22.648 404.177 24.072 405.953 25.064 408.257C26.056 410.529 26.552 413.233 26.552 416.369V426.257L21.896 421.217H35V432.545ZM35 412.433L22.76 420.689V408.689L35 400.337V412.433ZM23.144 421.217L18.008 426.257V417.089C18.008 415.521 17.656 414.369 16.952 413.633C16.248 412.865 15.288 412.481 14.072 412.481C12.856 412.481 11.896 412.865 11.192 413.633C10.488 414.369 10.136 415.521 10.136 417.089V426.257L5 421.217H23.144ZM35 396.78H1.4L1.4 385.452H35V396.78ZM35 379.998H1.4V370.686L21.848 353.598V357.918H1.4V346.878H35V356.19L14.552 373.278V368.958H35L35 379.998ZM35.768 323.996C35.768 326.716 35.352 329.228 34.52 331.532C33.656 333.804 32.44 335.788 30.872 337.484C29.304 339.148 27.448 340.444 25.304 341.372C23.16 342.3 20.792 342.764 18.2 342.764C15.608 342.764 13.24 342.3 11.096 341.372C8.952 340.444 7.096 339.132 5.528 337.436C3.96 335.74 2.76 333.74 1.928 331.436C1.064 329.1 0.631999 326.54 0.631999 323.756C0.631999 320.428 1.192 317.468 2.312 314.876C3.432 312.252 5.032 310.092 7.112 308.396L13.496 315.644C12.28 316.7 11.368 317.852 10.76 319.1C10.12 320.316 9.8 321.676 9.8 323.18C9.8 324.428 9.992 325.564 10.376 326.588C10.76 327.58 11.32 328.428 12.056 329.132C12.792 329.836 13.672 330.38 14.696 330.764C15.72 331.148 16.888 331.34 18.2 331.34C19.448 331.34 20.6 331.148 21.656 330.764C22.68 330.38 23.56 329.836 24.296 329.132C25.032 328.428 25.608 327.596 26.024 326.636C26.408 325.644 26.6 324.54 26.6 323.324C26.6 322.044 26.392 320.796 25.976 319.58C25.528 318.364 24.776 317.068 23.72 315.692L31.496 309.356C32.872 311.404 33.928 313.74 34.664 316.364C35.4 318.988 35.768 321.532 35.768 323.996ZM30.056 319.196H17.288V309.356H31.496L30.056 319.196ZM35 281.643L1.4 292.395V280.731L29.768 272.043V277.899L1.4 268.683V258.267L29.768 249.675V255.291L1.4 246.219L1.4 235.467L35 246.219L35 258.363L11.768 265.371V262.107L35 269.499V281.643ZM35.768 215.804C35.768 218.524 35.336 221.052 34.472 223.388C33.608 225.692 32.392 227.692 30.824 229.388C29.224 231.084 27.352 232.412 25.208 233.372C23.064 234.3 20.728 234.764 18.2 234.764C15.64 234.764 13.304 234.3 11.192 233.372C9.048 232.412 7.192 231.084 5.624 229.388C4.024 227.692 2.792 225.692 1.928 223.388C1.064 221.052 0.631999 218.524 0.631999 215.804C0.631999 213.052 1.064 210.524 1.928 208.22C2.792 205.916 4.024 203.916 5.624 202.22C7.192 200.524 9.048 199.212 11.192 198.284C13.304 197.324 15.64 196.844 18.2 196.844C20.728 196.844 23.064 197.324 25.208 198.284C27.352 199.212 29.224 200.524 30.824 202.22C32.392 203.916 33.608 205.916 34.472 208.22C35.336 210.524 35.768 213.052 35.768 215.804ZM26.6 215.804C26.6 214.748 26.408 213.772 26.024 212.876C25.64 211.948 25.096 211.148 24.392 210.476C23.656 209.772 22.776 209.228 21.752 208.844C20.696 208.46 19.512 208.268 18.2 208.268C16.888 208.268 15.72 208.46 14.696 208.844C13.64 209.228 12.76 209.772 12.056 210.476C11.32 211.148 10.76 211.948 10.376 212.876C9.992 213.772 9.8 214.748 9.8 215.804C9.8 216.86 9.992 217.852 10.376 218.78C10.76 219.676 11.32 220.476 12.056 221.18C12.76 221.852 13.64 222.38 14.696 222.764C15.72 223.148 16.888 223.34 18.2 223.34C19.512 223.34 20.696 223.148 21.752 222.764C22.776 222.38 23.656 221.852 24.392 221.18C25.096 220.476 25.64 219.676 26.024 218.78C26.408 217.852 26.6 216.86 26.6 215.804ZM35 192.733H1.4L1.4 176.557C1.4 173.421 1.912 170.717 2.936 168.445C3.96 166.141 5.432 164.365 7.352 163.117C9.24 161.869 11.48 161.245 14.072 161.245C16.664 161.245 18.904 161.869 20.792 163.117C22.648 164.365 24.072 166.141 25.064 168.445C26.056 170.717 26.552 173.421 26.552 176.557V186.445L21.896 181.405H35V192.733ZM35 172.621L22.76 180.877V168.877L35 160.525V172.621ZM23.144 181.405L18.008 186.445V177.277C18.008 175.709 17.656 174.557 16.952 173.821C16.248 173.053 15.288 172.669 14.072 172.669C12.856 172.669 11.896 173.053 11.192 173.821C10.488 174.557 10.136 175.709 10.136 177.277V186.445L5 181.405H23.144ZM35 156.967H1.4L1.4 140.407C1.4 136.663 2.088 133.367 3.464 130.519C4.808 127.671 6.728 125.447 9.224 123.847C11.72 122.247 14.696 121.447 18.152 121.447C21.64 121.447 24.648 122.247 27.176 123.847C29.672 125.447 31.608 127.671 32.984 130.519C34.328 133.367 35 136.663 35 140.407L35 156.967ZM26.168 145.639V140.887C26.168 139.287 25.864 137.895 25.256 136.711C24.648 135.495 23.752 134.551 22.568 133.879C21.352 133.207 19.88 132.871 18.152 132.871C16.456 132.871 15.016 133.207 13.832 133.879C12.648 134.551 11.752 135.495 11.144 136.711C10.536 137.895 10.232 139.287 10.232 140.887V145.639H26.168ZM35 106.568L1.4 91.8802V80.7442L35 66.0562V77.7682L6.776 88.6162V84.2002L35 95.0482V106.568ZM29.144 97.8322L20.984 94.9522V79.4962L29.144 76.6162V97.8322ZM35 64.2484H1.4V48.0724C1.4 44.9364 1.912 42.2324 2.936 39.9604C3.96 37.6564 5.432 35.8804 7.352 34.6324C9.24 33.3844 11.48 32.7604 14.072 32.7604C16.664 32.7604 18.904 33.3844 20.792 34.6324C22.648 35.8804 24.072 37.6564 25.064 39.9604C26.056 42.2324 26.552 44.9364 26.552 48.0724V57.9604L21.896 52.9204H35V64.2484ZM35 44.1364L22.76 52.3924V40.3924L35 32.0404V44.1364ZM23.144 52.9204L18.008 57.9604L18.008 48.7924C18.008 47.2244 17.656 46.0724 16.952 45.3364C16.248 44.5684 15.288 44.1844 14.072 44.1844C12.856 44.1844 11.896 44.5684 11.192 45.3364C10.488 46.0724 10.136 47.2244 10.136 48.7924L10.136 57.9604L5 52.9204H23.144ZM35 21.6555H10.184V31.4955H1.4L1.4 0.487498H10.184V10.3275H35V21.6555Z" fill="#231F20" fill-opacity="0.1"/>
</svg>
